<svg version="1.1" id="Layer_1" xmlns="http://www.w3.org/2000/svg" xmlns:xlink="http://www.w3.org/1999/xlink" x="0px" y="0px"
	 width="100%" viewBox="0 0 500 500" enable-background="new 0 0 500 500" xml:space="preserve">
<path fill="#FFFFFF" opacity="1.000000" stroke="none" 
	d="
M330.000000,501.000000 
	C220.000031,501.000000 110.500053,501.000000 1.000059,501.000000 
	C1.000039,334.333405 1.000039,167.666794 1.000020,1.000148 
	C167.666565,1.000099 334.333130,1.000099 500.999756,1.000049 
	C500.999847,167.666519 500.999847,334.333038 500.999939,500.999786 
	C444.166656,501.000000 387.333344,501.000000 330.000000,501.000000 
M267.663818,314.440979 
	C267.789520,312.487640 267.991852,310.535675 268.027679,308.580688 
	C268.187164,299.885712 268.298950,291.189911 269.287537,282.387726 
	C278.935577,280.718384 288.583588,279.049011 298.790924,277.840851 
	C300.203033,280.225098 301.615143,282.609344 302.973846,285.720215 
	C307.361389,294.079193 311.748932,302.438141 316.033447,311.658417 
	C315.734924,314.325073 316.283783,316.190063 319.588013,316.117035 
	C325.132385,315.994446 330.680542,316.026337 336.227112,316.020966 
	C346.156738,316.011322 356.086823,316.071320 366.015564,315.977753 
	C367.728729,315.961609 369.436127,315.330109 371.612427,314.529083 
	C369.198792,311.016174 366.785126,307.503296 364.059875,303.328278 
	C357.649170,292.573120 351.238434,281.817963 344.710419,270.375519 
	C343.014252,266.905670 341.318085,263.435822 340.386566,260.045166 
	C358.322693,250.552795 371.822113,236.693253 380.470734,218.368835 
	C388.624298,201.093262 388.371674,183.526764 380.980927,165.260788 
	C376.065308,157.983383 371.149689,150.705994 366.058746,142.807968 
	C356.183044,131.276260 343.776642,123.249390 329.707825,116.361679 
	C320.865875,113.110413 312.023895,109.859146 302.593048,106.184860 
	C295.131989,104.640228 287.670929,103.095589 279.525146,101.173172 
	C271.354218,100.532745 263.183258,99.892319 254.084534,99.098740 
	C247.723022,99.398582 241.361511,99.698433 234.329849,99.948288 
	C233.885376,99.997879 233.440918,100.047470 232.197388,100.030258 
	C231.135971,100.120369 230.074554,100.210472 228.199020,100.155174 
	C219.571732,101.808922 210.830093,103.017502 202.338333,105.198845 
	C175.527786,112.085854 151.590286,124.175179 133.119431,145.429535 
	C125.405327,154.306122 119.455276,164.229568 116.994507,176.798325 
	C116.424713,182.536896 115.854912,188.275452 115.168060,194.836746 
	C116.359619,200.265091 117.551170,205.693420 118.852798,211.870941 
	C122.515312,218.660355 126.177834,225.449783 130.022461,232.876709 
	C135.670639,238.608643 141.318817,244.340576 147.308517,250.651184 
	C156.208206,256.078156 165.107910,261.505096 174.606552,267.308380 
	C189.263443,274.391327 204.801102,278.544830 220.941940,282.095703 
	C220.665939,289.327423 220.389938,296.559113 219.999207,304.515564 
	C218.799088,305.789337 217.717697,307.208862 216.372650,308.304779 
	C214.007309,310.231934 212.989609,312.270813 215.595016,315.615082 
	C216.238922,315.732971 216.880402,315.937958 217.527054,315.955902 
	C230.386581,316.312775 243.245728,316.808075 256.107300,316.885864 
	C259.764160,316.908020 263.428436,315.702271 267.663818,314.440979 
M226.790756,355.566803 
	C226.600159,361.980377 225.407684,368.558411 226.427673,374.773315 
	C228.547043,387.686951 243.982437,393.246674 254.554855,385.471252 
	C255.642105,384.671692 256.593018,383.686798 257.911957,382.517731 
	C258.367889,386.582825 259.383514,389.332825 264.078796,387.183533 
	C264.078796,367.427673 264.129578,347.783508 263.935394,328.141724 
	C263.925201,327.111938 261.833984,326.102753 260.711609,325.083954 
	C259.781525,326.119690 258.083557,327.128418 258.046021,328.195526 
	C257.802856,335.109680 257.921356,342.036560 257.921356,349.208496 
	C245.063187,339.126068 233.732864,341.294312 226.790756,355.566803 
M180.482193,402.890839 
	C174.013321,419.770477 167.544449,436.650116 161.035263,453.634979 
	C168.371048,454.405182 168.371033,454.405182 170.440598,448.602905 
	C174.275467,437.851379 174.275482,437.851379 185.709381,437.851379 
	C196.576187,437.851379 196.576172,437.851379 200.521973,448.046417 
	C203.172867,454.895691 203.172882,454.895691 210.710907,453.323242 
	C203.833954,436.514862 197.016266,419.735748 190.084091,403.004089 
	C188.675980,399.605499 184.387650,399.334991 180.482193,402.890839 
M236.553207,454.312500 
	C251.329727,451.115509 253.206467,426.042297 243.097580,418.338257 
	C240.149429,416.091522 235.879868,414.860809 232.122910,414.620605 
	C229.122513,414.428772 225.980789,416.447571 222.397110,417.655243 
	C222.397110,412.106750 222.397110,406.535797 222.397110,400.771729 
	C219.949051,400.771729 218.061127,400.771729 216.168488,400.771729 
	C216.168488,418.687073 216.168488,436.256805 216.168488,453.978180 
	C219.048981,453.800201 222.496140,455.535400 222.257736,452.070465 
	C226.784225,452.903717 231.283188,453.731903 236.553207,454.312500 
M346.830994,435.508118 
	C346.795563,432.017853 346.908478,428.518250 346.689331,425.039551 
	C346.373901,420.031616 343.819763,416.085419 338.854858,415.397278 
	C333.877136,414.707336 328.589600,414.796661 323.648132,415.697571 
	C318.376709,416.658691 315.346161,420.629944 314.477722,426.172760 
	C317.912048,427.318939 320.428528,427.810455 322.232941,423.679504 
	C323.867157,419.938232 330.300720,418.687988 335.218048,420.471710 
	C339.378113,421.980743 340.480682,425.121796 339.658203,429.708435 
	C334.029480,430.679169 328.266846,431.339844 322.682312,432.720947 
	C315.772675,434.429688 312.326996,439.342224 313.129211,445.281891 
	C313.882660,450.860291 318.586670,455.135162 325.292908,454.726379 
	C330.373657,454.416656 335.349396,452.384308 340.620422,451.055847 
	C341.215057,455.292603 344.667969,454.235321 346.830872,453.827026 
	C346.830872,447.708130 346.830872,442.103424 346.830994,435.508118 
M303.655640,348.136322 
	C296.030457,357.485291 295.102570,367.859802 300.002777,378.497253 
	C305.477875,390.382660 321.082306,390.890869 331.055115,386.546906 
	C332.244507,386.028839 332.466370,383.289551 332.839966,382.336731 
	C325.838013,382.336731 319.508850,383.103485 313.462250,382.124664 
	C307.208282,381.112335 303.861908,374.564880 304.651550,367.070831 
	C311.383850,367.070831 318.175110,367.073730 324.966370,367.070190 
	C336.029633,367.064362 337.021545,365.615448 333.284607,354.753540 
	C332.803589,353.355347 332.186768,351.960938 331.389374,350.721405 
	C325.660767,341.816254 314.613770,340.589355 303.655640,348.136322 
M192.335831,349.584381 
	C195.299835,349.392303 198.302063,348.812317 201.218826,349.099701 
	C205.521469,349.523712 207.324112,352.772461 207.325714,357.866241 
	C207.327179,362.568329 203.627380,361.324188 201.278931,361.838104 
	C196.779068,362.822845 192.026794,362.840271 187.649567,364.157410 
	C180.374771,366.346375 177.916199,371.168274 179.028015,379.288727 
	C179.745132,384.526459 184.949448,388.462677 191.315002,388.950775 
	C197.838043,389.450928 203.147125,387.080139 207.550461,381.924530 
	C207.985916,383.167816 208.033966,383.730713 208.332077,384.080475 
	C209.462372,385.406616 210.673599,386.663727 211.854599,387.946625 
	C212.570251,386.374603 213.870514,384.815186 213.904739,383.228485 
	C214.098297,374.253937 214.085953,365.271362 213.950928,356.294434 
	C213.842926,349.113373 210.168243,344.144653 203.144760,343.621307 
	C197.689087,343.214813 192.065323,344.645050 186.572372,345.586334 
	C185.694550,345.736755 185.111526,347.607574 184.392227,348.683044 
	C185.650085,349.370911 186.844574,350.373383 188.186539,350.643768 
	C189.197769,350.847443 190.397934,350.113251 192.335831,349.584381 
M282.799469,415.382568 
	C282.528717,416.962555 282.050049,418.539093 282.023956,420.123108 
	C281.922455,426.286896 282.152313,432.460663 281.902496,438.616272 
	C281.631134,445.304169 277.562561,449.240997 271.630280,449.068787 
	C266.152252,448.909729 263.918915,445.927124 263.887451,438.594055 
	C263.854767,430.973877 263.880188,423.353455 263.880188,415.625641 
	C261.307068,415.625641 259.299591,415.625641 257.129761,415.625641 
	C257.129761,424.889160 256.898987,433.720184 257.196838,442.533356 
	C257.476135,450.797729 263.224884,455.827332 271.487427,454.766815 
	C275.187042,454.291992 278.674835,452.166901 282.366364,450.749390 
	C282.427002,455.408600 285.522675,454.126648 288.419983,453.652313 
	C288.419983,440.752502 288.419983,428.173279 288.419983,415.222809 
	C286.612549,415.222809 285.141815,415.222809 282.799469,415.382568 
M357.930634,361.621826 
	C357.146759,361.347229 356.331085,361.139862 355.584595,360.786316 
	C352.498474,359.324707 349.248383,357.712891 350.067230,353.549286 
	C350.877747,349.428101 354.469238,348.808380 357.869659,348.928314 
	C361.488342,349.055939 365.079895,350.048798 368.695251,350.129761 
	C370.193542,350.163300 371.722900,348.809906 373.238129,348.087250 
	C372.399811,346.932251 371.636017,344.847168 370.711121,344.773071 
	C364.673035,344.289429 358.520172,343.560852 352.562836,344.259399 
	C347.493378,344.853882 343.876312,348.420898 343.609833,354.112366 
	C343.358978,359.469238 346.408234,362.792542 350.908783,364.942505 
	C355.403595,367.089813 360.121399,368.802155 364.484283,371.177521 
	C366.097534,372.055847 367.701813,374.138428 368.048126,375.917450 
	C368.858307,380.079132 366.560791,382.826385 361.737457,382.898346 
	C356.031494,382.983459 350.311493,382.129913 344.239929,381.655304 
	C343.380646,384.113647 343.745209,386.453857 347.061127,387.435791 
	C354.610504,389.671478 362.141602,390.160889 369.293121,386.135193 
	C376.794464,381.912598 376.932404,371.161987 369.488495,366.923218 
	C366.039337,364.959137 362.263092,363.569458 357.930634,361.621826 
M139.197449,380.404663 
	C139.273575,388.983887 138.182098,387.961212 147.005402,388.005341 
	C153.986877,388.040222 160.968765,388.021484 167.950333,387.994873 
	C170.058289,387.986847 172.599915,388.485596 172.674072,385.165161 
	C172.755234,381.530396 170.040497,382.016785 167.743317,382.008453 
	C162.257797,381.988525 156.757706,381.751099 151.291199,382.072601 
	C147.008759,382.324432 145.959641,380.629761 146.018204,376.609833 
	C146.221573,362.649445 146.106430,348.684265 146.084351,334.720978 
	C146.081558,332.958191 145.911682,331.195679 145.829254,329.624329 
	C140.607651,328.009064 139.055008,329.806854 139.117325,334.550140 
	C139.313797,349.508301 139.195923,364.470612 139.197449,380.404663 
M302.593475,467.004395 
	C303.453491,463.709137 304.974426,460.430023 305.055511,457.115692 
	C305.356049,444.831177 305.190186,432.535004 305.176086,420.243225 
	C305.174255,418.647980 305.035156,417.052887 304.959625,415.457245 
	C302.660126,415.457245 300.900787,415.457245 298.603271,415.457245 
	C298.603271,417.511230 298.603790,419.306458 298.603210,421.101715 
	C298.599457,432.895172 298.608246,444.688660 298.585144,456.482086 
	C298.576294,461.008026 298.058838,465.151398 291.427734,463.883667 
	C291.194366,465.715698 290.997986,467.257172 290.583679,470.509583 
	C295.080872,469.350586 298.558411,468.454376 302.593475,467.004395 
M285.129730,348.667969 
	C285.013672,347.225952 284.897614,345.783936 284.790405,344.452057 
	C280.739594,343.169556 278.866608,343.892944 278.941528,348.328552 
	C279.140808,360.129333 279.014984,371.935699 279.001099,383.739868 
	C278.998444,385.972290 278.780334,388.094452 282.165863,388.045258 
	C285.671936,387.994324 285.119415,385.640991 285.123413,383.551880 
	C285.145172,372.246521 285.133087,360.941101 285.129730,348.667969 
M278.657166,333.759247 
	C280.345154,334.421051 282.001129,335.400970 283.738159,335.575897 
	C284.364929,335.639008 286.003174,333.462250 285.768524,332.839417 
	C285.005493,330.814423 283.780426,327.625275 282.387878,327.436890 
	C278.793884,326.950745 277.804626,329.771271 278.657166,333.759247 
M304.298889,407.867432 
	C304.623596,405.602783 304.948303,403.338135 305.293854,400.928009 
	C302.741638,400.928009 301.014587,400.928009 299.029419,400.928009 
	C299.029419,403.271667 299.029419,405.331696 299.029419,407.746399 
	C300.529419,407.827118 301.953308,407.903717 304.298889,407.867432 
z"/>
<path fill="#F8F8F8" opacity="1.000000" stroke="none" 
	d="
M215.030289,315.006287 
	C212.989609,312.270813 214.007309,310.231934 216.372650,308.304779 
	C217.717697,307.208862 218.799088,305.789337 220.399078,304.172485 
	C221.263519,303.688446 221.928818,303.698029 222.163666,303.384827 
	C231.168442,291.376190 240.133774,279.337952 249.357544,267.098907 
	C249.805298,266.285370 249.999863,265.676544 250.147797,265.065369 
	C250.101151,265.062958 250.139648,265.148041 250.402374,264.969391 
	C250.786362,264.188324 250.907639,263.585907 251.113266,262.678955 
	C251.212967,261.953613 251.228302,261.532867 251.554031,260.910217 
	C254.941742,253.204346 256.738953,245.468933 256.436707,237.059021 
	C256.870209,235.205582 256.965179,233.585846 257.179657,231.572418 
	C257.382568,227.784882 257.465942,224.390991 257.653931,220.547531 
	C257.882141,216.403748 258.005737,212.709534 258.070648,209.018204 
	C258.011932,209.021072 258.024811,209.137924 258.448486,209.110474 
	C260.567169,209.118927 262.262146,209.154800 263.930481,209.131714 
	C263.903809,209.072769 263.801025,209.151443 263.850952,209.577789 
	C264.039581,212.003372 264.178284,214.002640 264.240601,216.367767 
	C264.176453,217.478622 264.188721,218.223618 264.070984,219.418579 
	C263.850616,228.590942 263.760254,237.313309 263.562561,246.418152 
	C263.520935,247.849152 263.586639,248.897720 263.450928,250.323029 
	C264.211304,251.781937 265.127228,253.742371 266.142883,253.795517 
	C270.754517,254.036743 275.394318,253.740387 280.466919,253.739883 
	C283.943146,253.776047 286.976379,253.709763 290.463257,253.746613 
	C295.277161,253.804016 299.637421,253.758286 304.454834,253.811798 
	C308.668243,253.934280 312.435425,254.126938 316.174622,253.886154 
	C317.433746,253.805069 318.621979,252.623016 319.898346,251.720917 
	C319.954102,251.497665 319.854065,251.048477 319.960388,250.721985 
	C320.070007,249.948288 320.073303,249.501068 320.161530,248.678482 
	C319.465881,247.195511 318.685333,246.087891 318.356323,244.971954 
	C319.346954,244.090134 320.362396,243.210693 320.351593,242.344025 
	C320.238159,233.229111 319.960785,224.116226 319.802521,214.576797 
	C319.954865,212.555954 320.033356,210.961121 320.148926,208.613007 
	C322.468292,209.153244 324.265961,209.571976 325.996704,210.456451 
	C326.307617,220.952072 326.685455,230.981964 327.038452,241.330109 
	C327.356628,241.710709 327.699707,241.773056 328.028473,241.978027 
	C328.014191,242.120621 327.936066,242.396393 327.955292,242.709442 
	C327.946594,243.439575 327.918640,243.856644 327.661011,244.463470 
	C327.659424,245.783005 327.887512,246.912781 328.322083,248.155151 
	C328.697815,248.694427 328.867096,249.121124 328.774689,249.686707 
	C328.665588,250.196152 328.818176,250.566681 328.943604,250.963074 
	C328.916412,250.988922 328.854553,250.946518 328.807770,251.350861 
	C332.389099,259.538452 336.017212,267.321716 339.736725,275.449402 
	C347.608521,285.930573 355.388947,296.067261 363.628845,306.802673 
	C364.047974,305.215546 364.209747,304.602966 364.371490,303.990387 
	C366.785126,307.503296 369.198792,311.016174 370.894775,314.746948 
	C355.948303,315.318787 341.718231,315.629944 327.491730,316.059814 
	C324.318817,316.155701 322.907806,314.990997 322.993866,311.742554 
	C323.112518,307.262787 323.046722,302.776154 322.967407,298.294067 
	C322.933716,296.388885 322.665588,294.487823 322.504028,292.584900 
	C320.101501,299.986877 322.296631,307.669037 320.237823,314.864441 
	C319.778625,314.857941 319.319458,314.851440 318.860291,314.844940 
	C318.282532,313.577362 317.704803,312.309814 317.146851,310.571289 
	C317.166656,295.753754 317.166656,281.407227 317.166656,266.766571 
	C312.486267,266.766571 308.256195,266.766571 303.595459,266.610413 
	C299.864990,266.473236 296.565216,266.492188 292.803406,266.357056 
	C288.530670,266.157715 284.720062,266.079193 280.909332,266.073059 
	C265.473389,266.048248 265.473389,266.056488 266.290802,282.286591 
	C266.061371,293.498077 265.965393,304.239044 265.460144,314.955444 
	C264.343933,313.357422 263.075775,311.801300 263.026520,310.207489 
	C262.805176,303.044861 262.930054,295.871552 262.930054,288.702087 
	C262.309174,288.695740 261.688293,288.689362 261.067413,288.683014 
	C260.884644,296.116272 260.412964,303.557983 260.630951,310.979431 
	C260.755310,315.213989 260.057983,316.477600 255.809830,315.988342 
	C252.865784,315.649261 249.923996,315.052856 246.976608,315.022766 
	C236.328888,314.913971 225.679214,314.996185 215.030289,315.006287 
z"/>
<path fill="#873A89" opacity="1.000000" stroke="none" 
	d="
M251.243652,261.112091 
	C251.228302,261.532867 251.212967,261.953613 250.856125,262.862183 
	C250.389633,263.949310 250.264633,264.548676 250.139648,265.148041 
	C250.139648,265.148041 250.101151,265.062958 249.844147,265.222900 
	C249.426208,266.023132 249.265274,266.663391 249.104340,267.303650 
	C240.133774,279.337952 231.168442,291.376190 222.163666,303.384827 
	C221.928818,303.698029 221.263519,303.688446 220.456451,303.810120 
	C220.389938,296.559113 220.665939,289.327423 220.918182,281.165375 
	C220.881119,271.112976 220.867813,261.990906 220.923279,252.413330 
	C220.992020,221.399490 220.992020,190.841171 220.992020,160.018448 
	C231.109543,160.018448 240.555130,160.018448 250.000427,160.485809 
	C250.000092,190.408493 249.953873,219.863953 250.055161,249.318924 
	C250.068680,253.251297 250.829117,257.181091 251.243652,261.112091 
z"/>
<path fill="#B6B7BB" opacity="1.000000" stroke="none" 
	d="
M255.012329,99.251907 
	C263.183258,99.892319 271.354218,100.532745 279.674683,101.708496 
	C274.952972,104.982483 269.986877,107.567612 265.237213,110.502968 
	C260.478333,113.444069 255.897491,116.680305 251.306519,119.884491 
	C243.650330,125.227989 235.972214,130.547760 228.507874,136.150040 
	C227.426270,136.961823 227.478592,139.284409 226.647049,141.018295 
	C204.922150,148.158676 185.665649,158.222717 172.862762,177.919098 
	C170.999557,178.043518 169.174515,177.840805 167.977264,178.612335 
	C161.467133,182.807312 155.156815,187.310638 148.692841,191.579315 
	C138.745636,198.148239 128.729584,204.612885 118.742729,211.121765 
	C117.551170,205.693420 116.359619,200.265091 115.568825,194.414032 
	C123.572098,189.031052 131.222687,184.142639 138.766449,179.094559 
	C151.848053,170.340698 164.846146,161.462112 177.913010,152.686127 
	C186.304291,147.050369 194.725327,141.457581 203.191422,135.935043 
	C208.873199,132.228745 214.716263,128.768936 220.382797,125.040230 
	C231.099976,117.988113 241.785431,110.885017 252.358780,103.620735 
	C253.639359,102.740944 254.146652,100.735603 255.012329,99.251907 
z"/>
<path fill="#B9BABE" opacity="1.000000" stroke="none" 
	d="
M254.548431,99.175323 
	C254.146652,100.735603 253.639359,102.740944 252.358780,103.620735 
	C241.785431,110.885017 231.099976,117.988113 220.382797,125.040230 
	C214.716263,128.768936 208.873199,132.228745 203.191422,135.935043 
	C194.725327,141.457581 186.304291,147.050369 177.913010,152.686127 
	C164.846146,161.462112 151.848053,170.340698 138.766449,179.094559 
	C131.222687,184.142639 123.572098,189.031052 115.627350,194.002686 
	C115.854912,188.275452 116.424713,182.536896 117.455650,176.396759 
	C118.551117,175.828674 119.293053,175.820480 119.804268,175.472900 
	C141.687637,160.595062 163.487885,145.594025 185.439468,130.817780 
	C198.476456,122.042221 211.781891,113.666153 224.871643,104.967529 
	C226.546371,103.854614 227.646713,101.877396 229.013138,100.300583 
	C230.074554,100.210472 231.135971,100.120369 232.641800,100.352646 
	C233.724136,100.449448 234.362076,100.223862 235.000000,99.998276 
	C241.361511,99.698433 247.723022,99.398582 254.548431,99.175323 
z"/>
<path fill="#BDBFC3" opacity="1.000000" stroke="none" 
	d="
M228.606079,100.227875 
	C227.646713,101.877396 226.546371,103.854614 224.871643,104.967529 
	C211.781891,113.666153 198.476456,122.042221 185.439468,130.817780 
	C163.487885,145.594025 141.687637,160.595062 119.804268,175.472900 
	C119.293053,175.820480 118.551117,175.828674 117.569962,176.006866 
	C119.455276,164.229568 125.405327,154.306122 133.119431,145.429535 
	C151.590286,124.175179 175.527786,112.085854 202.338333,105.198845 
	C210.830093,103.017502 219.571732,101.808922 228.606079,100.227875 
z"/>
<path fill="#95959B" opacity="1.000000" stroke="none" 
	d="
M381.044189,165.981476 
	C388.371674,183.526764 388.624298,201.093262 380.470734,218.368835 
	C371.822113,236.693253 358.322693,250.552795 339.718628,259.875519 
	C336.664642,257.085602 334.278625,254.465347 332.118896,251.586853 
	C335.158630,249.897476 338.020294,248.553055 340.777191,247.020233 
	C352.911072,240.273804 362.423584,231.105545 367.266144,217.768616 
	C372.624695,203.010757 371.456024,188.439728 366.125977,173.903992 
	C371.195862,170.956573 374.158234,164.794357 381.044189,165.981476 
z"/>
<path fill="#B2B3B7" opacity="1.000000" stroke="none" 
	d="
M118.797768,211.496353 
	C128.729584,204.612885 138.745636,198.148239 148.692841,191.579315 
	C155.156815,187.310638 161.467133,182.807312 167.977264,178.612335 
	C169.174515,177.840805 170.999557,178.043518 172.783173,178.283997 
	C168.966110,187.443237 166.875900,196.413589 168.530304,206.006134 
	C166.311356,206.639648 164.272125,206.952789 162.678650,207.966537 
	C155.952240,212.245743 149.204346,216.522186 142.768768,221.216949 
	C138.206787,224.544891 134.132385,228.541214 129.840347,232.239197 
	C126.177834,225.449783 122.515312,218.660355 118.797768,211.496353 
z"/>
<path fill="#A6A7AC" opacity="1.000000" stroke="none" 
	d="
M330.165619,116.890793 
	C343.776642,123.249390 356.183044,131.276260 365.963318,143.467606 
	C362.285217,146.396652 358.528198,148.442154 355.197571,151.035309 
	C353.663177,152.229965 352.963379,154.496521 351.555054,156.165649 
	C349.607300,154.920090 348.008698,153.757690 346.369080,152.656296 
	C333.510864,144.018951 318.998718,139.851440 304.004211,136.638718 
	C305.286438,134.429718 306.174927,132.006149 307.908661,130.849136 
	C315.189941,125.990021 322.724060,121.509758 330.165619,116.890793 
z"/>
<path fill="#9FA0A5" opacity="1.000000" stroke="none" 
	d="
M220.854523,252.868835 
	C220.867813,261.990906 220.881119,271.112976 220.842712,280.714600 
	C204.801102,278.544830 189.263443,274.391327 174.310791,266.756287 
	C175.733932,263.939667 177.075775,261.181793 179.253403,259.517426 
	C183.290543,256.431763 187.873230,254.070862 192.119141,251.243546 
	C195.196121,249.194626 198.096283,246.880203 201.427185,244.786041 
	C208.137558,247.548218 214.496033,250.208527 220.854523,252.868835 
z"/>
<path fill="#B2B3B7" opacity="1.000000" stroke="none" 
	d="
M227.006195,140.907883 
	C227.478592,139.284409 227.426270,136.961823 228.507874,136.150040 
	C235.972214,130.547760 243.650330,125.227989 251.306519,119.884491 
	C255.897491,116.680305 260.478333,113.444069 265.237213,110.502968 
	C269.986877,107.567612 274.952972,104.982483 280.017029,101.897385 
	C287.670929,103.095589 295.131989,104.640228 302.701477,106.729340 
	C292.379089,113.939079 281.902802,120.534904 271.549988,127.319130 
	C269.006531,128.985855 266.103485,130.915588 267.551361,134.932159 
	C253.729767,136.966782 240.367981,138.937332 227.006195,140.907883 
z"/>
<path fill="#A6A7AC" opacity="1.000000" stroke="none" 
	d="
M201.075287,244.684174 
	C198.096283,246.880203 195.196121,249.194626 192.119141,251.243546 
	C187.873230,254.070862 183.290543,256.431763 179.253403,259.517426 
	C177.075775,261.181793 175.733932,263.939667 174.011307,266.568115 
	C165.107910,261.505096 156.208206,256.078156 147.182281,249.999359 
	C148.192596,247.814560 149.025467,245.830994 150.517471,244.825378 
	C157.580032,240.065216 164.745712,235.444244 172.044296,231.055801 
	C174.484070,229.588821 177.427292,228.959122 180.426361,228.101990 
	C187.500000,233.732925 194.287643,239.208557 201.075287,244.684174 
z"/>
<path fill="#ADAEB1" opacity="1.000000" stroke="none" 
	d="
M180.140381,227.946701 
	C177.427292,228.959122 174.484070,229.588821 172.044296,231.055801 
	C164.745712,235.444244 157.580032,240.065216 150.517471,244.825378 
	C149.025467,245.830994 148.192596,247.814560 147.011505,249.710022 
	C141.318817,244.340576 135.670639,238.608643 129.931396,232.557953 
	C134.132385,228.541214 138.206787,224.544891 142.768768,221.216949 
	C149.204346,216.522186 155.952240,212.245743 162.678650,207.966537 
	C164.272125,206.952789 166.311356,206.639648 168.638641,206.379150 
	C170.580872,214.971695 175.610977,221.329147 180.140381,227.946701 
z"/>
<path fill="#ADAEB1" opacity="1.000000" stroke="none" 
	d="
M268.011169,134.868073 
	C266.103485,130.915588 269.006531,128.985855 271.549988,127.319130 
	C281.902802,120.534904 292.379089,113.939079 302.995911,106.940857 
	C312.023895,109.859146 320.865875,113.110413 329.936707,116.626236 
	C322.724060,121.509758 315.189941,125.990021 307.908661,130.849136 
	C306.174927,132.006149 305.286438,134.429718 303.572784,136.664658 
	C291.428009,136.328430 279.719574,135.598251 268.011169,134.868073 
z"/>
<path fill="#ADAEB1" opacity="1.000000" stroke="none" 
	d="
M226.900146,355.187347 
	C233.732864,341.294312 245.063187,339.126068 257.921356,349.208496 
	C257.921356,342.036560 257.802856,335.109680 258.046021,328.195526 
	C258.083557,327.128418 259.781525,326.119690 260.711609,325.083954 
	C261.833984,326.102753 263.925201,327.111938 263.935394,328.141724 
	C264.129578,347.783508 264.078796,367.427673 264.078796,387.183533 
	C259.383514,389.332825 258.367889,386.582825 257.911957,382.517731 
	C256.593018,383.686798 255.642105,384.671692 254.554855,385.471252 
	C243.982437,393.246674 228.547043,387.686951 226.427673,374.773315 
	C225.407684,368.558411 226.600159,361.980377 226.900146,355.187347 
M253.863297,380.428802 
	C258.660919,374.383759 257.754425,367.430328 257.070679,360.496063 
	C256.345520,353.141632 252.917786,349.327209 246.545013,348.889862 
	C238.737488,348.354095 234.396759,351.287445 233.026001,358.871948 
	C232.271454,363.046906 232.045151,367.474670 232.517990,371.683136 
	C233.704727,382.245850 242.545731,386.481567 253.863297,380.428802 
z"/>
<path fill="#8C408E" opacity="1.000000" stroke="none" 
	d="
M180.645416,402.538757 
	C184.387650,399.334991 188.675980,399.605499 190.084091,403.004089 
	C197.016266,419.735748 203.833954,436.514862 210.710907,453.323242 
	C203.172882,454.895691 203.172867,454.895691 200.521973,448.046417 
	C196.576172,437.851379 196.576187,437.851379 185.709381,437.851379 
	C174.275482,437.851379 174.275467,437.851379 170.440598,448.602905 
	C168.371033,454.405182 168.371048,454.405182 161.035263,453.634979 
	C167.544449,436.650116 174.013321,419.770477 180.645416,402.538757 
M190.922409,422.619843 
	C189.126801,417.846771 187.331207,413.073669 185.261581,407.572174 
	C182.216721,416.140167 179.484573,423.828217 176.704758,431.650391 
	C182.779877,431.650391 188.274796,431.650391 194.228333,431.650391 
	C193.083893,428.580994 192.112213,425.974915 190.922409,422.619843 
z"/>
<path fill="#8C408E" opacity="1.000000" stroke="none" 
	d="
M236.167694,454.436310 
	C231.283188,453.731903 226.784225,452.903717 222.257736,452.070465 
	C222.496140,455.535400 219.048981,453.800201 216.168488,453.978180 
	C216.168488,436.256805 216.168488,418.687073 216.168488,400.771729 
	C218.061127,400.771729 219.949051,400.771729 222.397110,400.771729 
	C222.397110,406.535797 222.397110,412.106750 222.397110,417.655243 
	C225.980789,416.447571 229.122513,414.428772 232.122910,414.620605 
	C235.879868,414.860809 240.149429,416.091522 243.097580,418.338257 
	C253.206467,426.042297 251.329727,451.115509 236.167694,454.436310 
M229.155579,448.915833 
	C233.378418,449.787354 237.076370,449.094635 239.733475,445.342377 
	C243.441162,440.106537 243.532303,429.272736 239.920227,424.022491 
	C236.708481,419.354095 230.730621,418.483429 226.478943,422.064728 
	C219.456314,427.980194 220.590256,443.771210 229.155579,448.915833 
z"/>
<path fill="#8C408E" opacity="1.000000" stroke="none" 
	d="
M346.830933,436.003418 
	C346.830872,442.103424 346.830872,447.708130 346.830872,453.827026 
	C344.667969,454.235321 341.215057,455.292603 340.620422,451.055847 
	C335.349396,452.384308 330.373657,454.416656 325.292908,454.726379 
	C318.586670,455.135162 313.882660,450.860291 313.129211,445.281891 
	C312.326996,439.342224 315.772675,434.429688 322.682312,432.720947 
	C328.266846,431.339844 334.029480,430.679169 339.658203,429.708435 
	C340.480682,425.121796 339.378113,421.980743 335.218048,420.471710 
	C330.300720,418.687988 323.867157,419.938232 322.232941,423.679504 
	C320.428528,427.810455 317.912048,427.318939 314.477722,426.172760 
	C315.346161,420.629944 318.376709,416.658691 323.648132,415.697571 
	C328.589600,414.796661 333.877136,414.707336 338.854858,415.397278 
	C343.819763,416.085419 346.373901,420.031616 346.689331,425.039551 
	C346.908478,428.518250 346.795563,432.017853 346.830933,436.003418 
M325.637848,437.871338 
	C321.991058,438.765289 319.417114,440.722748 320.293762,444.829834 
	C321.140625,448.797424 324.550507,449.693573 327.997803,449.754791 
	C336.271912,449.901794 340.958801,443.881348 339.513184,435.033813 
	C337.419983,435.471893 335.333984,435.920380 333.242737,436.342834 
	C330.974274,436.801025 328.700928,437.234955 325.637848,437.871338 
z"/>
<path fill="#ADAEB1" opacity="1.000000" stroke="none" 
	d="
M303.925964,347.891541 
	C314.613770,340.589355 325.660767,341.816254 331.389374,350.721405 
	C332.186768,351.960938 332.803589,353.355347 333.284607,354.753540 
	C337.021545,365.615448 336.029633,367.064362 324.966370,367.070190 
	C318.175110,367.073730 311.383850,367.070831 304.651550,367.070831 
	C303.861908,374.564880 307.208282,381.112335 313.462250,382.124664 
	C319.508850,383.103485 325.838013,382.336731 332.839966,382.336731 
	C332.466370,383.289551 332.244507,386.028839 331.055115,386.546906 
	C321.082306,390.890869 305.477875,390.382660 300.002777,378.497253 
	C295.102570,367.859802 296.030457,357.485291 303.925964,347.891541 
M325.024689,361.961975 
	C325.945068,361.126404 327.618103,360.329956 327.663910,359.448944 
	C327.965637,353.641235 323.431580,349.042969 317.576721,348.847748 
	C309.277313,348.571045 305.073090,352.730011 304.760925,361.968475 
	C311.218597,361.968475 317.670013,361.968475 325.024689,361.961975 
z"/>
<path fill="#ADAEB1" opacity="1.000000" stroke="none" 
	d="
M191.924927,349.690460 
	C190.397934,350.113251 189.197769,350.847443 188.186539,350.643768 
	C186.844574,350.373383 185.650085,349.370911 184.392227,348.683044 
	C185.111526,347.607574 185.694550,345.736755 186.572372,345.586334 
	C192.065323,344.645050 197.689087,343.214813 203.144760,343.621307 
	C210.168243,344.144653 213.842926,349.113373 213.950928,356.294434 
	C214.085953,365.271362 214.098297,374.253937 213.904739,383.228485 
	C213.870514,384.815186 212.570251,386.374603 211.854584,387.946625 
	C210.673599,386.663727 209.462372,385.406616 208.332077,384.080475 
	C208.033966,383.730713 207.985916,383.167816 207.550461,381.924530 
	C203.147125,387.080139 197.838043,389.450928 191.315002,388.950775 
	C184.949448,388.462677 179.745132,384.526459 179.028015,379.288727 
	C177.916199,371.168274 180.374771,366.346375 187.649567,364.157410 
	C192.026794,362.840271 196.779068,362.822845 201.278931,361.838104 
	C203.627380,361.324188 207.327179,362.568329 207.325714,357.866241 
	C207.324112,352.772461 205.521469,349.523712 201.218826,349.099701 
	C198.302063,348.812317 195.299835,349.392303 191.924927,349.690460 
M190.246887,382.906433 
	C202.163681,384.905609 209.315506,379.062469 207.024078,366.004974 
	C202.172577,366.485352 197.221848,366.684692 192.390427,367.550018 
	C188.808365,368.191589 186.067383,370.345642 185.382492,374.363281 
	C184.736511,378.152679 186.336853,380.756775 190.246887,382.906433 
z"/>
<path fill="#8C408E" opacity="1.000000" stroke="none" 
	d="
M283.235291,415.302673 
	C285.141815,415.222809 286.612549,415.222809 288.419983,415.222809 
	C288.419983,428.173279 288.419983,440.752502 288.419983,453.652313 
	C285.522675,454.126648 282.427002,455.408600 282.366364,450.749390 
	C278.674835,452.166901 275.187042,454.291992 271.487427,454.766815 
	C263.224884,455.827332 257.476135,450.797729 257.196838,442.533356 
	C256.898987,433.720184 257.129761,424.889160 257.129761,415.625641 
	C259.299591,415.625641 261.307068,415.625641 263.880188,415.625641 
	C263.880188,423.353455 263.854767,430.973877 263.887451,438.594055 
	C263.918915,445.927124 266.152252,448.909729 271.630280,449.068787 
	C277.562561,449.240997 281.631134,445.304169 281.902496,438.616272 
	C282.152313,432.460663 281.922455,426.286896 282.023956,420.123108 
	C282.050049,418.539093 282.528717,416.962555 283.235291,415.302673 
z"/>
<path fill="#ADAEB1" opacity="1.000000" stroke="none" 
	d="
M358.282898,361.770599 
	C362.263092,363.569458 366.039337,364.959137 369.488495,366.923218 
	C376.932404,371.161987 376.794464,381.912598 369.293121,386.135193 
	C362.141602,390.160889 354.610504,389.671478 347.061127,387.435791 
	C343.745209,386.453857 343.380646,384.113647 344.239929,381.655304 
	C350.311493,382.129913 356.031494,382.983459 361.737457,382.898346 
	C366.560791,382.826385 368.858307,380.079132 368.048126,375.917450 
	C367.701813,374.138428 366.097534,372.055847 364.484283,371.177521 
	C360.121399,368.802155 355.403595,367.089813 350.908783,364.942505 
	C346.408234,362.792542 343.358978,359.469238 343.609833,354.112366 
	C343.876312,348.420898 347.493378,344.853882 352.562836,344.259399 
	C358.520172,343.560852 364.673035,344.289429 370.711121,344.773071 
	C371.636017,344.847168 372.399811,346.932251 373.238129,348.087250 
	C371.722900,348.809906 370.193542,350.163300 368.695251,350.129761 
	C365.079895,350.048798 361.488342,349.055939 357.869659,348.928314 
	C354.469238,348.808380 350.877747,349.428101 350.067230,353.549286 
	C349.248383,357.712891 352.498474,359.324707 355.584595,360.786316 
	C356.331085,361.139862 357.146759,361.347229 358.282898,361.770599 
z"/>
<path fill="#ADAEB1" opacity="1.000000" stroke="none" 
	d="
M139.198578,379.917969 
	C139.195923,364.470612 139.313797,349.508301 139.117325,334.550140 
	C139.055008,329.806854 140.607651,328.009064 145.829254,329.624329 
	C145.911682,331.195679 146.081558,332.958191 146.084351,334.720978 
	C146.106430,348.684265 146.221573,362.649445 146.018204,376.609833 
	C145.959641,380.629761 147.008759,382.324432 151.291199,382.072601 
	C156.757706,381.751099 162.257797,381.988525 167.743317,382.008453 
	C170.040497,382.016785 172.755234,381.530396 172.674072,385.165161 
	C172.599915,388.485596 170.058289,387.986847 167.950333,387.994873 
	C160.968765,388.021484 153.986877,388.040222 147.005402,388.005341 
	C138.182098,387.961212 139.273575,388.983887 139.198578,379.917969 
z"/>
<path fill="#9FA0A5" opacity="1.000000" stroke="none" 
	d="
M351.885132,156.277039 
	C352.963379,154.496521 353.663177,152.229965 355.197571,151.035309 
	C358.528198,148.442154 362.285217,146.396652 366.050964,143.777924 
	C371.149689,150.705994 376.065308,157.983383 381.012573,165.621124 
	C374.158234,164.794357 371.195862,170.956573 365.872375,173.693298 
	C360.826324,167.834076 356.355743,162.055557 351.885132,156.277039 
z"/>
<path fill="#95959B" opacity="1.000000" stroke="none" 
	d="
M266.424225,281.816101 
	C265.473389,266.056488 265.473389,266.048248 280.909332,266.073059 
	C284.720062,266.079193 288.530670,266.157715 292.825195,266.674866 
	C294.949890,270.557739 296.590759,273.968719 298.231628,277.379639 
	C288.583588,279.049011 278.935577,280.718384 268.539429,282.271729 
	C267.335632,282.042480 266.879913,281.929291 266.424225,281.816101 
z"/>
<path fill="#643364" opacity="1.000000" stroke="none" 
	d="
M304.026123,266.766571 
	C308.256195,266.766571 312.486267,266.766571 317.166656,266.766571 
	C317.166656,281.407227 317.166656,295.753754 316.905670,310.483643 
	C316.475281,310.843658 316.305908,310.820404 316.136505,310.797119 
	C311.748932,302.438141 307.361389,294.079193 303.366577,285.288208 
	C304.116333,284.369354 304.797363,283.871368 304.781036,283.397430 
	C304.590027,277.851715 304.294220,272.309631 304.026123,266.766571 
z"/>
<path fill="#8C408E" opacity="1.000000" stroke="none" 
	d="
M302.314697,467.281281 
	C298.558411,468.454376 295.080872,469.350586 290.583679,470.509583 
	C290.997986,467.257172 291.194366,465.715698 291.427734,463.883667 
	C298.058838,465.151398 298.576294,461.008026 298.585144,456.482086 
	C298.608246,444.688660 298.599457,432.895172 298.603210,421.101715 
	C298.603790,419.306458 298.603271,417.511230 298.603271,415.457245 
	C300.900787,415.457245 302.660126,415.457245 304.959625,415.457245 
	C305.035156,417.052887 305.174255,418.647980 305.176086,420.243225 
	C305.190186,432.535004 305.356049,444.831177 305.055511,457.115692 
	C304.974426,460.430023 303.453491,463.709137 302.314697,467.281281 
z"/>
<path fill="#ADAEB1" opacity="1.000000" stroke="none" 
	d="
M285.131165,349.151825 
	C285.133087,360.941101 285.145172,372.246521 285.123413,383.551880 
	C285.119415,385.640991 285.671936,387.994324 282.165863,388.045258 
	C278.780334,388.094452 278.998444,385.972290 279.001099,383.739868 
	C279.014984,371.935699 279.140808,360.129333 278.941528,348.328552 
	C278.866608,343.892944 280.739594,343.169556 284.790405,344.452057 
	C284.897614,345.783936 285.013672,347.225952 285.131165,349.151825 
z"/>
<path fill="#482946" opacity="1.000000" stroke="none" 
	d="
M364.215698,303.659332 
	C364.209747,304.602966 364.047974,305.215546 363.628845,306.802673 
	C355.388947,296.067261 347.608521,285.930573 340.092224,275.403748 
	C341.846832,273.696716 343.337280,272.379761 344.827728,271.062805 
	C351.238434,281.817963 357.649170,292.573120 364.215698,303.659332 
z"/>
<path fill="#4F2B4E" opacity="1.000000" stroke="none" 
	d="
M344.769073,270.719177 
	C343.337280,272.379761 341.846832,273.696716 340.000854,275.059326 
	C336.017212,267.321716 332.389099,259.538452 329.128662,251.273071 
	C330.295105,251.142319 331.093872,251.493698 331.892609,251.845093 
	C334.278625,254.465347 336.664642,257.085602 339.336304,259.835938 
	C341.318085,263.435822 343.014252,266.905670 344.769073,270.719177 
z"/>
<path fill="#6D326D" opacity="1.000000" stroke="none" 
	d="
M303.595459,266.610413 
	C304.294220,272.309631 304.590027,277.851715 304.781036,283.397430 
	C304.797363,283.871368 304.116333,284.369354 303.393250,284.924866 
	C301.615143,282.609344 300.203033,280.225098 298.511292,277.610260 
	C296.590759,273.968719 294.949890,270.557739 293.287231,266.828918 
	C296.565216,266.492188 299.864990,266.473236 303.595459,266.610413 
z"/>
<path fill="#D0CFD1" opacity="1.000000" stroke="none" 
	d="
M215.312653,315.310669 
	C225.679214,314.996185 236.328888,314.913971 246.976608,315.022766 
	C249.923996,315.052856 252.865784,315.649261 255.809830,315.988342 
	C260.057983,316.477600 260.755310,315.213989 260.630951,310.979431 
	C260.412964,303.557983 260.884644,296.116272 261.067413,288.683014 
	C261.688293,288.689362 262.309174,288.695740 262.930054,288.702087 
	C262.930054,295.871552 262.805176,303.044861 263.026520,310.207489 
	C263.075775,311.801300 264.343933,313.357422 265.765930,314.971924 
	C266.683777,315.028503 266.886566,315.044067 267.089325,315.059631 
	C263.428436,315.702271 259.764160,316.908020 256.107300,316.885864 
	C243.245728,316.808075 230.386581,316.312775 217.527054,315.955902 
	C216.880402,315.937958 216.238922,315.732971 215.312653,315.310669 
z"/>
<path fill="#D0CFD1" opacity="1.000000" stroke="none" 
	d="
M316.084961,311.227783 
	C316.305908,310.820404 316.475281,310.843658 316.885864,310.954590 
	C317.704803,312.309814 318.282532,313.577362 318.860291,314.844940 
	C319.319458,314.851440 319.778625,314.857941 320.237823,314.864441 
	C322.296631,307.669037 320.101501,299.986877 322.504028,292.584900 
	C322.665588,294.487823 322.933716,296.388885 322.967407,298.294067 
	C323.046722,302.776154 323.112518,307.262787 322.993866,311.742554 
	C322.907806,314.990997 324.318817,316.155701 327.491730,316.059814 
	C341.718231,315.629944 355.948303,315.318787 370.661621,314.973816 
	C369.436127,315.330109 367.728729,315.961609 366.015564,315.977753 
	C356.086823,316.071320 346.156738,316.011322 336.227112,316.020966 
	C330.680542,316.026337 325.132385,315.994446 319.588013,316.117035 
	C316.283783,316.190063 315.734924,314.325073 316.084961,311.227783 
z"/>
<path fill="#B9BABE" opacity="1.000000" stroke="none" 
	d="
M267.376587,314.750305 
	C266.886566,315.044067 266.683777,315.028503 266.175171,314.996460 
	C265.965393,304.239044 266.061371,293.498077 266.290802,282.286621 
	C266.879913,281.929291 267.335632,282.042480 268.109619,282.325043 
	C268.298950,291.189911 268.187164,299.885712 268.027679,308.580688 
	C267.991852,310.535675 267.789520,312.487640 267.376587,314.750305 
z"/>
<path fill="#B2B3B7" opacity="1.000000" stroke="none" 
	d="
M278.495361,333.404205 
	C277.804626,329.771271 278.793884,326.950745 282.387878,327.436890 
	C283.780426,327.625275 285.005493,330.814423 285.768524,332.839417 
	C286.003174,333.462250 284.364929,335.639008 283.738159,335.575897 
	C282.001129,335.400970 280.345154,334.421051 278.495361,333.404205 
z"/>
<path fill="#873A89" opacity="1.000000" stroke="none" 
	d="
M303.838074,407.923889 
	C301.953308,407.903717 300.529419,407.827118 299.029419,407.746399 
	C299.029419,405.331696 299.029419,403.271667 299.029419,400.928009 
	C301.014587,400.928009 302.741638,400.928009 305.293854,400.928009 
	C304.948303,403.338135 304.623596,405.602783 303.838074,407.923889 
z"/>
<path fill="#BDBFC3" opacity="1.000000" stroke="none" 
	d="
M234.664917,99.973282 
	C234.362076,100.223862 233.724136,100.449448 233.041321,100.386047 
	C233.440918,100.047470 233.885376,99.997879 234.664917,99.973282 
z"/>
<path fill="#FDFDFD" opacity="1.000000" stroke="none" 
	d="
M332.118896,251.586853 
	C331.093872,251.493698 330.295105,251.142319 329.175476,250.868729 
	C328.854553,250.946518 328.916412,250.988922 329.055359,250.620255 
	C329.141632,250.016998 329.089020,249.782410 329.036377,249.547806 
	C328.867096,249.121124 328.697815,248.694427 328.245850,247.777802 
	C327.938995,246.283157 327.914856,245.278442 327.890747,244.273712 
	C327.918640,243.856644 327.946594,243.439575 328.261047,242.495651 
	C331.418793,240.512741 334.289948,239.056686 337.494904,237.472061 
	C339.902344,235.615585 341.976044,233.887695 344.370514,232.016388 
	C345.359406,230.956390 345.949982,229.969650 346.707062,229.133652 
	C360.507599,213.893799 359.239777,186.040817 343.917419,171.464111 
	C341.537720,169.684555 339.316864,168.202332 336.910583,166.436935 
	C334.853180,165.415924 332.981171,164.678055 330.858337,163.665771 
	C324.405945,162.280716 318.204315,161.170074 311.556763,159.963409 
	C308.074921,159.925613 305.039032,159.983871 301.556976,159.946411 
	C298.074310,159.913422 295.037781,159.976151 291.551270,159.943817 
	C287.734833,159.907578 284.368378,159.966385 280.546753,159.930084 
	C276.061981,159.893417 272.032349,159.951859 267.541687,159.921326 
	C261.387329,159.894394 255.694031,159.956421 250.000732,160.018448 
	C240.555130,160.018448 231.109543,160.018448 220.992020,160.018448 
	C220.992020,190.841171 220.992020,221.399490 220.923279,252.413330 
	C214.496033,250.208527 208.137558,247.548218 201.427185,244.786041 
	C194.287643,239.208557 187.500000,233.732925 180.426361,228.101990 
	C175.610977,221.329147 170.580872,214.971695 169.023407,206.381058 
	C166.875900,196.413589 168.966110,187.443237 173.111115,178.406525 
	C185.665649,158.222717 204.922150,148.158676 226.647064,141.018295 
	C240.367981,138.937332 253.729767,136.966782 267.551361,134.932159 
	C279.719574,135.598251 291.428009,136.328430 303.567841,137.032669 
	C318.998718,139.851440 333.510864,144.018951 346.369080,152.656296 
	C348.008698,153.757690 349.607300,154.920090 351.555023,156.165649 
	C356.355743,162.055557 360.826324,167.834076 365.550507,173.823303 
	C371.456024,188.439728 372.624695,203.010757 367.266144,217.768616 
	C362.423584,231.105545 352.911072,240.273804 340.777191,247.020233 
	C338.020294,248.553055 335.158630,249.897476 332.118896,251.586853 
z"/>
<path fill="#833D85" opacity="1.000000" stroke="none" 
	d="
M250.000427,160.485809 
	C255.694031,159.956421 261.387329,159.894394 267.538757,160.349548 
	C267.664185,164.279770 267.014923,167.697281 267.063446,171.104874 
	C267.170715,178.636093 267.629089,186.162323 267.864075,194.174042 
	C267.682526,199.439972 267.581116,204.222412 267.112305,209.005676 
	C265.763580,209.054794 264.782318,209.103119 263.801025,209.151443 
	C263.801025,209.151443 263.903809,209.072769 263.723907,208.812759 
	C261.704285,208.747803 259.864532,208.942871 258.024811,209.137924 
	C258.024811,209.137924 258.011932,209.021072 257.751770,209.275940 
	C257.510803,213.352905 257.530060,217.175003 257.549316,220.997116 
	C257.465942,224.390991 257.382568,227.784882 256.882355,231.836517 
	C256.343109,234.093750 256.220642,235.693222 256.098206,237.292709 
	C256.738953,245.468933 254.941742,253.204346 251.554047,260.910217 
	C250.829117,257.181091 250.068680,253.251297 250.055161,249.318924 
	C249.953873,219.863953 250.000092,190.408493 250.000427,160.485809 
z"/>
<path fill="#5E2E5E" opacity="1.000000" stroke="none" 
	d="
M312.002686,160.059448 
	C318.204315,161.170074 324.405945,162.280716 330.504700,163.864929 
	C329.932098,166.179550 329.077454,168.016098 329.055908,169.862350 
	C328.927856,180.841568 329.163666,191.827744 328.859222,202.800003 
	C328.792023,205.220886 327.039886,207.595032 326.063629,209.990707 
	C324.265961,209.571976 322.468292,209.153244 320.148926,208.613007 
	C320.033356,210.961121 319.954865,212.555954 319.604858,214.582413 
	C319.333374,215.014023 318.939301,215.046906 318.573547,215.028519 
	C316.144836,215.687759 314.081848,216.365387 312.011963,216.570068 
	C312.004272,197.417892 312.003479,178.738678 312.002686,160.059448 
z"/>
<path fill="#4F2B4E" opacity="1.000000" stroke="none" 
	d="
M325.996704,210.456451 
	C327.039886,207.595032 328.792023,205.220886 328.859222,202.800003 
	C329.163666,191.827744 328.927856,180.841568 329.055908,169.862350 
	C329.077454,168.016098 329.932098,166.179550 330.755463,164.139359 
	C332.981171,164.678055 334.853180,165.415924 336.876770,166.878067 
	C336.685516,173.205154 335.996613,178.812134 336.064087,184.409988 
	C336.277802,202.142029 336.774109,219.870682 337.161133,237.600647 
	C334.289948,239.056686 331.418793,240.512741 328.241821,242.182587 
	C327.936066,242.396393 328.014191,242.120621 327.911469,241.791122 
	C327.607910,241.232712 327.359436,241.082779 327.063324,241.011841 
	C326.685455,230.981964 326.307617,220.952072 325.996704,210.456451 
z"/>
<path fill="#643364" opacity="1.000000" stroke="none" 
	d="
M318.939301,215.046906 
	C318.939301,215.046906 319.333374,215.014023 319.531036,215.008408 
	C319.960785,224.116226 320.238159,233.229111 320.351593,242.344025 
	C320.362396,243.210693 319.346954,244.090134 317.992249,244.958908 
	C311.874176,242.682358 306.414062,240.704651 301.350006,237.988556 
	C299.425018,236.956116 297.439606,234.298813 297.285767,232.246811 
	C297.160828,230.580185 299.381042,228.131378 301.175934,227.047272 
	C305.563232,224.397385 310.431091,222.547226 314.844421,219.934235 
	C316.569305,218.913010 317.595123,216.711075 318.939301,215.046906 
z"/>
<path fill="#7C3D7E" opacity="1.000000" stroke="none" 
	d="
M263.669861,246.035706 
	C263.760254,237.313309 263.850616,228.590942 264.459717,219.401215 
	C266.226044,219.181854 267.596313,219.179321 268.700470,219.720154 
	C274.186218,222.407211 279.601776,225.237488 285.229187,228.015289 
	C285.416260,228.013260 285.791168,227.996292 285.842773,228.420715 
	C286.694397,233.294876 285.343048,236.357178 280.854553,238.178116 
	C275.023468,240.543716 269.388977,243.394028 263.669861,246.035706 
z"/>
<path fill="#6D326D" opacity="1.000000" stroke="none" 
	d="
M303.997650,253.712555 
	C299.637421,253.758286 295.277161,253.804016 290.462830,253.306549 
	C289.674408,247.858459 289.340057,242.953568 289.038452,237.829803 
	C289.071167,237.610931 289.139099,237.174530 289.347351,237.008835 
	C289.950317,236.276215 290.345093,235.709290 290.921997,235.406403 
	C291.709045,235.768173 292.313965,235.865906 293.158539,236.233353 
	C296.929138,238.344498 300.460144,240.185928 303.993408,242.481659 
	C303.996338,246.528152 303.997009,250.120361 303.997650,253.712555 
z"/>
<path fill="#412A40" opacity="1.000000" stroke="none" 
	d="
M303.991119,242.027374 
	C300.460144,240.185928 296.929138,238.344498 293.171936,235.804962 
	C292.935272,233.399734 292.924774,231.692596 293.249329,229.839157 
	C295.046051,228.104782 296.507751,226.516739 298.345428,224.955322 
	C303.153900,222.335648 307.586365,219.689331 312.018860,217.043015 
	C314.081848,216.365387 316.144836,215.687759 318.573547,215.028519 
	C317.595123,216.711075 316.569305,218.913010 314.844421,219.934235 
	C310.431091,222.547226 305.563232,224.397385 301.175934,227.047272 
	C299.381042,228.131378 297.160828,230.580185 297.285767,232.246811 
	C297.439606,234.298813 299.425018,236.956116 301.350006,237.988556 
	C306.414062,240.704651 311.874176,242.682358 317.540649,244.967224 
	C318.685333,246.087891 319.465881,247.195511 319.783325,248.626129 
	C314.210510,246.641876 309.100830,244.334625 303.991119,242.027374 
z"/>
<path fill="#743375" opacity="1.000000" stroke="none" 
	d="
M289.005737,238.048676 
	C289.340057,242.953568 289.674408,247.858459 290.009186,253.203415 
	C286.976379,253.709763 283.943146,253.776047 280.462463,253.356445 
	C279.001953,249.909546 277.988892,246.948517 277.178162,243.711792 
	C281.255524,241.640289 285.130615,239.844482 289.005737,238.048676 
z"/>
<path fill="#643364" opacity="1.000000" stroke="none" 
	d="
M303.993408,242.481659 
	C309.100830,244.334625 314.210510,246.641876 319.698425,249.001495 
	C320.073303,249.501068 320.070007,249.948288 319.817169,250.802322 
	C319.567627,251.209137 319.483704,251.634109 319.483704,251.634109 
	C319.483704,251.634109 319.842590,251.944153 319.842590,251.944153 
	C318.621979,252.623016 317.433746,253.805069 316.174622,253.886154 
	C312.435425,254.126938 308.668243,253.934280 304.454834,253.811798 
	C303.997009,250.120361 303.996338,246.528152 303.993408,242.481659 
z"/>
<path fill="#7C3D7E" opacity="1.000000" stroke="none" 
	d="
M276.975830,243.987488 
	C277.988892,246.948517 279.001953,249.909546 280.019470,253.254013 
	C275.394318,253.740387 270.754517,254.036743 266.142883,253.795517 
	C265.127228,253.742371 264.211304,251.781937 263.756256,250.232574 
	C268.500641,247.839417 272.738220,245.913452 276.975830,243.987488 
z"/>
<path fill="#4F2B4E" opacity="1.000000" stroke="none" 
	d="
M277.178162,243.711792 
	C272.738220,245.913452 268.500641,247.839417 263.957703,249.855835 
	C263.586639,248.897720 263.520935,247.849152 263.562561,246.418152 
	C269.388977,243.394028 275.023468,240.543716 280.854553,238.178116 
	C285.343048,236.357178 286.694397,233.294876 286.125244,228.391663 
	C286.543701,227.929947 286.731323,227.921661 286.938965,228.367386 
	C287.792847,231.577820 285.031281,235.272598 289.139099,237.174530 
	C289.139099,237.174530 289.071167,237.610931 289.038452,237.829803 
	C285.130615,239.844482 281.255524,241.640289 277.178162,243.711792 
z"/>
<path fill="#4F2B4E" opacity="1.000000" stroke="none" 
	d="
M285.042084,228.017303 
	C279.601776,225.237488 274.186218,222.407211 268.700470,219.720154 
	C267.596313,219.179321 266.226044,219.181854 264.589722,218.951233 
	C264.188721,218.223618 264.176453,217.478622 264.518372,216.360779 
	C265.742035,215.671204 266.611603,215.354477 267.590759,215.386047 
	C269.811005,217.184738 271.921661,218.635147 274.239075,220.347244 
	C277.977905,223.078384 281.509979,225.547836 285.042084,228.017303 
z"/>
<path fill="#7C3D7E" opacity="1.000000" stroke="none" 
	d="
M267.481140,215.037766 
	C266.611603,215.354477 265.742035,215.671204 264.594727,215.994904 
	C264.178284,214.002640 264.039581,212.003372 263.850952,209.577789 
	C264.782318,209.103119 265.763580,209.054794 267.183960,209.432495 
	C267.575745,211.584930 267.528442,213.311356 267.481140,215.037766 
z"/>
<path fill="#7C3D7E" opacity="1.000000" stroke="none" 
	d="
M257.653931,220.547531 
	C257.530060,217.175003 257.510803,213.352905 257.810486,209.273071 
	C258.005737,212.709534 257.882141,216.403748 257.653931,220.547531 
z"/>
<path fill="#7C3D7E" opacity="1.000000" stroke="none" 
	d="
M258.448486,209.110474 
	C259.864532,208.942871 261.704285,208.747803 263.750580,208.871704 
	C262.262146,209.154800 260.567169,209.118927 258.448486,209.110474 
z"/>
<path fill="#7C3D7E" opacity="1.000000" stroke="none" 
	d="
M256.436707,237.059021 
	C256.220642,235.693222 256.343109,234.093750 256.762848,232.230179 
	C256.965179,233.585846 256.870209,235.205582 256.436707,237.059021 
z"/>
<path fill="#B6B7BB" opacity="1.000000" stroke="none" 
	d="
M327.661041,244.463470 
	C327.914856,245.278442 327.938995,246.283157 328.039368,247.665222 
	C327.887512,246.912781 327.659424,245.783005 327.661041,244.463470 
z"/>
<path fill="#833D85" opacity="1.000000" stroke="none" 
	d="
M249.357544,267.098907 
	C249.265274,266.663391 249.426208,266.023132 249.890808,265.225311 
	C249.999863,265.676544 249.805298,266.285370 249.357544,267.098907 
z"/>
<path fill="#833D85" opacity="1.000000" stroke="none" 
	d="
M250.402359,264.969391 
	C250.264633,264.548676 250.389633,263.949310 250.771774,263.166718 
	C250.907639,263.585907 250.786362,264.188324 250.402359,264.969391 
z"/>
<path fill="#412A40" opacity="1.000000" stroke="none" 
	d="
M319.898346,251.720917 
	C319.842590,251.944153 319.483704,251.634109 319.483704,251.634109 
	C319.483704,251.634109 319.567627,251.209137 319.710846,251.128815 
	C319.854065,251.048477 319.954102,251.497665 319.898346,251.720917 
z"/>
<path fill="#B6B7BB" opacity="1.000000" stroke="none" 
	d="
M328.774689,249.686707 
	C329.089020,249.782410 329.141632,250.016998 329.082520,250.594406 
	C328.818176,250.566681 328.665588,250.196152 328.774689,249.686707 
z"/>
<path fill="#5E2E5E" opacity="1.000000" stroke="none" 
	d="
M327.038452,241.330109 
	C327.359436,241.082779 327.607910,241.232712 327.925751,241.648529 
	C327.699707,241.773056 327.356628,241.710709 327.038452,241.330109 
z"/>
<path fill="#FDFDFD" opacity="1.000000" stroke="none" 
	d="
M253.580841,380.701782 
	C242.545731,386.481567 233.704727,382.245850 232.517990,371.683136 
	C232.045151,367.474670 232.271454,363.046906 233.026001,358.871948 
	C234.396759,351.287445 238.737488,348.354095 246.545013,348.889862 
	C252.917786,349.327209 256.345520,353.141632 257.070679,360.496063 
	C257.754425,367.430328 258.660919,374.383759 253.580841,380.701782 
z"/>
<path fill="#FDFDFD" opacity="1.000000" stroke="none" 
	d="
M191.031464,422.994324 
	C192.112213,425.974915 193.083893,428.580994 194.228333,431.650391 
	C188.274796,431.650391 182.779877,431.650391 176.704758,431.650391 
	C179.484573,423.828217 182.216721,416.140167 185.261581,407.572174 
	C187.331207,413.073669 189.126801,417.846771 191.031464,422.994324 
z"/>
<path fill="#FDFDFD" opacity="1.000000" stroke="none" 
	d="
M228.771637,448.780579 
	C220.590256,443.771210 219.456314,427.980194 226.478943,422.064728 
	C230.730621,418.483429 236.708481,419.354095 239.920227,424.022491 
	C243.532303,429.272736 243.441162,440.106537 239.733475,445.342377 
	C237.076370,449.094635 233.378418,449.787354 228.771637,448.780579 
z"/>
<path fill="#F8F8F8" opacity="1.000000" stroke="none" 
	d="
M326.033752,437.775391 
	C328.700928,437.234955 330.974274,436.801025 333.242737,436.342834 
	C335.333984,435.920380 337.419983,435.471893 339.513184,435.033813 
	C340.958801,443.881348 336.271912,449.901794 327.997803,449.754791 
	C324.550507,449.693573 321.140625,448.797424 320.293762,444.829834 
	C319.417114,440.722748 321.991058,438.765289 326.033752,437.775391 
z"/>
<path fill="#FDFDFD" opacity="1.000000" stroke="none" 
	d="
M324.573059,361.965210 
	C317.670013,361.968475 311.218597,361.968475 304.760925,361.968475 
	C305.073090,352.730011 309.277313,348.571045 317.576721,348.847748 
	C323.431580,349.042969 327.965637,353.641235 327.663910,359.448944 
	C327.618103,360.329956 325.945068,361.126404 324.573059,361.965210 
z"/>
<path fill="#FDFDFD" opacity="1.000000" stroke="none" 
	d="
M189.850937,382.781189 
	C186.336853,380.756775 184.736511,378.152679 185.382492,374.363281 
	C186.067383,370.345642 188.808365,368.191589 192.390427,367.550018 
	C197.221848,366.684692 202.172577,366.485352 207.024078,366.004974 
	C209.315506,379.062469 202.163681,384.905609 189.850937,382.781189 
z"/>
<path fill="#412A40" opacity="1.000000" stroke="none" 
	d="
M344.076172,171.761429 
	C359.239777,186.040817 360.507599,213.893799 346.707062,229.133652 
	C345.949982,229.969650 345.359406,230.956390 344.349365,231.582764 
	C343.680267,229.843246 343.049957,228.389297 343.071930,226.945297 
	C343.352234,208.549835 343.726105,190.155823 344.076172,171.761429 
z"/>
<path fill="#643364" opacity="1.000000" stroke="none" 
	d="
M312.011963,216.570068 
	C307.586365,219.689331 303.153900,222.335648 298.363647,224.567017 
	C298.281342,222.622086 298.556763,221.092117 299.121185,219.374466 
	C305.055084,217.775482 307.854218,213.845367 308.630554,208.372757 
	C309.497589,202.260757 307.352997,197.437164 301.936371,193.809296 
	C301.635620,190.285828 301.003998,187.194321 301.062378,184.115921 
	C301.214630,176.088272 301.669159,168.066345 302.003113,160.042145 
	C305.039032,159.983871 308.074921,159.925613 311.556763,159.963409 
	C312.003479,178.738678 312.004272,197.417892 312.011963,216.570068 
z"/>
<path fill="#482946" opacity="1.000000" stroke="none" 
	d="
M343.917389,171.464111 
	C343.726105,190.155823 343.352234,208.549835 343.071930,226.945297 
	C343.049957,228.389297 343.680267,229.843246 344.028564,231.726196 
	C341.976044,233.887695 339.902344,235.615585 337.494904,237.472046 
	C336.774109,219.870682 336.277802,202.142029 336.064087,184.409988 
	C335.996613,178.812134 336.685516,173.205154 337.062134,167.161224 
	C339.316864,168.202332 341.537720,169.684555 343.917389,171.464111 
z"/>
<path fill="#7C3D7E" opacity="1.000000" stroke="none" 
	d="
M267.944244,193.690582 
	C267.629089,186.162323 267.170715,178.636093 267.063446,171.104874 
	C267.014923,167.697281 267.664185,164.279770 267.999817,160.438538 
	C272.032349,159.951859 276.061981,159.893417 280.498901,160.317322 
	C280.269989,164.651993 279.131866,168.501038 279.106750,172.357346 
	C279.060974,179.395996 279.674347,186.438919 279.555969,193.549210 
	C275.380890,193.642426 271.662567,193.666504 267.944244,193.690582 
z"/>
<path fill="#743375" opacity="1.000000" stroke="none" 
	d="
M280.012756,193.480072 
	C279.674347,186.438919 279.060974,179.395996 279.106750,172.357346 
	C279.131866,168.501038 280.269989,164.651993 280.954041,160.412430 
	C284.368378,159.966385 287.734833,159.907578 291.495789,160.356354 
	C291.930054,171.735886 291.969788,182.607849 291.550659,193.523254 
	C287.398773,193.537827 283.705750,193.508957 280.012756,193.480072 
z"/>
<path fill="#6D326D" opacity="1.000000" stroke="none" 
	d="
M292.009521,193.479828 
	C291.969788,182.607849 291.930054,171.735886 291.945770,160.451401 
	C295.037781,159.976151 298.074310,159.913422 301.556976,159.946411 
	C301.669159,168.066345 301.214630,176.088272 301.062378,184.115921 
	C301.003998,187.194321 301.635620,190.285828 301.485657,193.775879 
	C298.015472,193.946869 295.012512,193.713348 292.009521,193.479828 
z"/>
<path fill="#FDFDFD" opacity="1.000000" stroke="none" 
	d="
M291.550659,193.523270 
	C295.012512,193.713348 298.015472,193.946869 301.469177,194.213806 
	C307.352997,197.437164 309.497589,202.260757 308.630554,208.372757 
	C307.854218,213.845367 305.055084,217.775482 298.664368,219.419891 
	C289.956482,219.797180 281.994385,219.941376 274.032318,220.085571 
	C271.921661,218.635147 269.811005,217.184738 267.590759,215.386047 
	C267.528442,213.311356 267.575745,211.584930 267.551392,209.431702 
	C267.581116,204.222412 267.682526,199.439972 267.864075,194.174042 
	C271.662567,193.666504 275.380890,193.642426 279.555969,193.549210 
	C283.705750,193.508957 287.398773,193.537827 291.550659,193.523270 
z"/>
<path fill="#743375" opacity="1.000000" stroke="none" 
	d="
M274.239075,220.347244 
	C281.994385,219.941376 289.956482,219.797180 298.375366,219.607574 
	C298.556763,221.092117 298.281342,222.622086 297.987671,224.540375 
	C296.507751,226.516739 295.046051,228.104782 292.936371,229.846802 
	C291.870483,229.994553 291.452545,229.988312 290.908386,229.908234 
	C290.782135,229.834396 290.618591,229.591873 290.697998,229.392395 
	C290.531250,228.903336 290.285065,228.613785 289.820770,228.127380 
	C289.428986,227.840012 289.255280,227.749481 288.955231,227.520416 
	C288.508484,227.486572 288.188049,227.591248 287.628052,227.739624 
	C287.388428,227.783295 286.918945,227.913361 286.918945,227.913361 
	C286.731323,227.921661 286.543701,227.929947 286.073608,227.967255 
	C285.791168,227.996292 285.416260,228.013260 285.229187,228.015289 
	C281.509979,225.547836 277.977905,223.078384 274.239075,220.347244 
z"/>
<path fill="#412A40" opacity="1.000000" stroke="none" 
	d="
M286.938965,228.367386 
	C286.918945,227.913361 287.388428,227.783295 287.933228,227.781311 
	C288.679230,227.739212 288.880402,227.699081 289.081573,227.658936 
	C289.255280,227.749481 289.428986,227.840012 289.815186,228.320923 
	C290.224670,229.004837 290.421631,229.298355 290.618591,229.591873 
	C290.618591,229.591873 290.782135,229.834396 290.882324,230.337051 
	C290.901642,232.273926 290.820770,233.708145 290.739868,235.142365 
	C290.345093,235.709290 289.950317,236.276215 289.347351,237.008835 
	C285.031281,235.272598 287.792847,231.577820 286.938965,228.367386 
z"/>
<path fill="#F8F8F8" opacity="1.000000" stroke="none" 
	d="
M290.921997,235.406403 
	C290.820770,233.708145 290.901642,232.273926 291.008606,230.410889 
	C291.452545,229.988312 291.870483,229.994553 292.601318,229.993134 
	C292.924774,231.692596 292.935272,233.399734 292.932312,235.535248 
	C292.313965,235.865906 291.709045,235.768173 290.921997,235.406403 
z"/>
<path fill="#4F2B4E" opacity="1.000000" stroke="none" 
	d="
M290.697998,229.392395 
	C290.421631,229.298355 290.224670,229.004837 290.033295,228.517761 
	C290.285065,228.613785 290.531250,228.903336 290.697998,229.392395 
z"/>
<path fill="#4F2B4E" opacity="1.000000" stroke="none" 
	d="
M288.955231,227.520416 
	C288.880402,227.699081 288.679230,227.739212 288.172852,227.737640 
	C288.188049,227.591248 288.508484,227.486572 288.955231,227.520416 
z"/>
</svg>